<?xml version="1.0" encoding="utf-8"?>
<!-- Generator: Adobe Illustrator 16.0.0, SVG Export Plug-In . SVG Version: 6.00 Build 0)  -->
<!DOCTYPE svg PUBLIC "-//W3C//DTD SVG 1.1//EN" "http://www.w3.org/Graphics/SVG/1.1/DTD/svg11.dtd">
<svg version="1.1" id="Layer_1" xmlns="http://www.w3.org/2000/svg" xmlns:xlink="http://www.w3.org/1999/xlink" x="0px" y="0px"
	 width="30px" height="30px" viewBox="0 0 30 30" enable-background="new 0 0 30 30" xml:space="preserve">
<g>
	<path fill="none" stroke="#394B6F" stroke-miterlimit="10" d="M22.996,5.853h4.455c0-3.42-2.516-3.649-2.516-3.649s-0.68,0-0.979,0
		C23.956,2.204,23.004,2.937,22.996,5.853z"/>
</g>
<path fill="none" stroke="#394B6F" stroke-miterlimit="10" d="M7.266,24.328V5.894c0,0-0.122-3.69,3.118-3.69
	c3.239,0,13.26,0,13.26,0s-0.793,0.737-0.793,3.69s0,18.947,0,18.947s-0.411,2.46-2.748,2.46h-9.458"/>
<path fill="none" stroke="#394B6F" stroke-miterlimit="10" d="M2.049,24.063c0,0,0.261,3.238,2.651,3.238c2.39,0,12.176,0,12.176,0
	s-1.566-0.603-1.566-3.238H2.049z"/>
<line fill="none" stroke="#394B6F" stroke-miterlimit="10" x1="9.35" y1="9.606" x2="20.146" y2="9.606"/>
<line fill="none" stroke="#394B6F" stroke-miterlimit="10" x1="9.35" y1="12.466" x2="20.146" y2="12.466"/>
<line fill="none" stroke="#394B6F" stroke-miterlimit="10" x1="9.35" y1="15.142" x2="20.146" y2="15.142"/>
<line fill="none" stroke="#394B6F" stroke-miterlimit="10" x1="9.35" y1="18.125" x2="20.146" y2="18.125"/>
</svg>
